<svg width="344" height="115" viewBox="0 0 344 115" fill="none" xmlns="http://www.w3.org/2000/svg">
    <g filter="url(#filter0_ddii)">
        <path d="M46.5265 62.976C46.4412 63.6587 46.3985 64.1707 46.3985 64.512C46.3985 68.4373 48.5958 70.4 52.9905 70.4C55.5505 70.4 57.4918 69.9093 58.8145 68.928C60.1798 67.9467 61.2678 66.752 62.0785 65.344C62.5052 64.6187 62.8678 64.128 63.1665 63.872C63.4652 63.616 63.9558 63.488 64.6385 63.488H73.0225C73.4065 63.488 73.7052 63.6373 73.9185 63.936C74.1745 64.192 74.2598 64.512 74.1745 64.896C73.4918 67.84 72.1265 70.5067 70.0785 72.896C68.0732 75.2853 65.4705 77.184 62.2705 78.592C59.1132 79.9573 55.5078 80.64 51.4545 80.64C48.1692 80.64 45.2252 79.9787 42.6225 78.656C40.0625 77.3333 38.0572 75.5413 36.6065 73.28C35.1558 71.0187 34.4305 68.5013 34.4305 65.728C34.4305 64.9173 34.4945 64.1067 34.6225 63.296C35.0065 60.7787 35.8172 56.9813 37.0545 51.904C38.3345 46.784 40.8732 42.624 44.6705 39.424C48.4678 36.1813 53.5665 34.56 59.9665 34.56C62.9958 34.56 65.8545 35.1787 68.5425 36.416C71.2305 37.6107 73.3852 39.2533 75.0065 41.344C76.6278 43.4347 77.4385 45.7173 77.4385 48.192C77.4385 48.8747 77.3745 49.5787 77.2465 50.304C77.2038 50.688 76.9905 51.0293 76.6065 51.328C76.2652 51.584 75.9025 51.712 75.5185 51.712H67.1345C66.4518 51.712 66.0038 51.584 65.7905 51.328C65.6198 51.072 65.4918 50.5813 65.4065 49.856C65.1932 48.4053 64.6172 47.2107 63.6785 46.272C62.7398 45.2907 60.9905 44.8 58.4305 44.8C55.7425 44.8 53.6305 45.4827 52.0945 46.848C50.5585 48.2133 49.4705 50.0053 48.8305 52.224C48.4892 53.2907 48.0625 55.04 47.5505 57.472C47.0385 59.904 46.6972 61.7387 46.5265 62.976ZM104.967 48.448C105.052 47.9787 105.287 47.5733 105.671 47.232C106.097 46.8907 106.545 46.72 107.015 46.72H115.079C115.548 46.72 115.911 46.8907 116.167 47.232C116.465 47.5733 116.572 47.9787 116.487 48.448L110.215 78.272C110.129 78.7413 109.873 79.1467 109.447 79.488C109.063 79.8293 108.636 80 108.167 80H100.039C99.5692 80 99.1852 79.8293 98.8865 79.488C98.6305 79.1467 98.5452 78.7413 98.6305 78.272L98.9505 76.8C98.2252 77.9947 97.1372 78.9333 95.6865 79.616C94.2785 80.2987 92.2518 80.64 89.6065 80.64C87.6438 80.64 85.7878 80.192 84.0385 79.296C82.2892 78.4 80.8812 77.0773 79.8145 75.328C78.7478 73.536 78.2145 71.3813 78.2145 68.864C78.2145 67.7547 78.2998 66.688 78.4705 65.664C78.6838 64.256 79.0465 62.528 79.5585 60.48C80.7958 55.6587 82.8865 52.0533 85.8305 49.664C88.7745 47.2747 92.2732 46.08 96.3265 46.08C98.5452 46.08 100.359 46.4853 101.767 47.296C103.217 48.064 104.177 48.9387 104.647 49.92L104.967 48.448ZM90.0545 65.152C90.0118 65.408 89.9905 65.792 89.9905 66.304C89.9905 69.248 91.5265 70.72 94.5985 70.72C96.3478 70.72 97.7558 70.2293 98.8225 69.248C99.9318 68.2667 100.743 67.0507 101.255 65.6C101.511 64.8747 101.724 64 101.895 62.976C102.108 61.952 102.215 61.12 102.215 60.48C102.215 59.2 101.852 58.1333 101.127 57.28C100.444 56.4267 99.3132 56 97.7345 56C95.8998 56 94.4065 56.512 93.2545 57.536C92.1452 58.56 91.3345 59.904 90.8225 61.568C90.4385 62.6773 90.1825 63.872 90.0545 65.152ZM147.772 70.08C148.241 70.08 148.604 70.2507 148.86 70.592C149.159 70.9333 149.265 71.3387 149.18 71.808L147.772 78.272C147.687 78.7413 147.431 79.1467 147.004 79.488C146.62 79.8293 146.193 80 145.724 80H117.82C117.351 80 116.988 79.8293 116.732 79.488C116.433 79.1467 116.327 78.7413 116.412 78.272L117.756 72.064C117.884 71.3387 118.375 70.592 119.228 69.824L133.692 56.64H123.388C122.919 56.64 122.556 56.4693 122.3 56.128C122.044 55.7867 121.959 55.3813 122.044 54.912L123.388 48.448C123.473 47.9787 123.729 47.5733 124.156 47.232C124.583 46.8907 125.031 46.72 125.5 46.72H151.484C151.953 46.72 152.316 46.8907 152.572 47.232C152.828 47.5733 152.913 47.9787 152.828 48.448L151.548 54.656C151.505 54.9973 151.356 55.3387 151.1 55.68C150.844 55.9787 150.567 56.256 150.268 56.512L135.292 70.08H147.772ZM198.617 53.696C198.148 56.4267 197.508 59.456 196.697 62.784C195.289 68.3307 192.75 72.5973 189.081 75.584C185.412 78.528 180.292 80 173.721 80H155.801C155.332 80 154.948 79.8293 154.649 79.488C154.393 79.1467 154.308 78.7413 154.393 78.272L163.225 36.928C163.31 36.4587 163.545 36.0533 163.929 35.712C164.356 35.3707 164.804 35.2 165.273 35.2H181.593C184.75 35.2 187.652 35.8827 190.297 37.248C192.942 38.5707 195.033 40.4267 196.569 42.816C198.105 45.2053 198.873 47.8933 198.873 50.88C198.873 51.904 198.788 52.8427 198.617 53.696ZM173.209 45.44L168.089 69.76H174.937C180.313 69.76 183.62 67.3067 184.857 62.4C185.625 59.2427 186.308 56.0427 186.905 52.8C186.99 52.032 187.033 51.4987 187.033 51.2C187.033 47.36 184.601 45.44 179.737 45.44H173.209ZM227.904 48.448C227.989 47.9787 228.224 47.5733 228.608 47.232C229.035 46.8907 229.483 46.72 229.952 46.72H238.016C238.485 46.72 238.848 46.8907 239.104 47.232C239.403 47.5733 239.509 47.9787 239.424 48.448L233.152 78.272C233.067 78.7413 232.811 79.1467 232.384 79.488C232 79.8293 231.573 80 231.104 80H222.976C222.507 80 222.123 79.8293 221.824 79.488C221.568 79.1467 221.483 78.7413 221.568 78.272L221.888 76.8C221.163 77.9947 220.075 78.9333 218.624 79.616C217.216 80.2987 215.189 80.64 212.544 80.64C210.581 80.64 208.725 80.192 206.976 79.296C205.227 78.4 203.819 77.0773 202.752 75.328C201.685 73.536 201.152 71.3813 201.152 68.864C201.152 67.7547 201.237 66.688 201.408 65.664C201.621 64.256 201.984 62.528 202.496 60.48C203.733 55.6587 205.824 52.0533 208.768 49.664C211.712 47.2747 215.211 46.08 219.264 46.08C221.483 46.08 223.296 46.4853 224.704 47.296C226.155 48.064 227.115 48.9387 227.584 49.92L227.904 48.448ZM212.992 65.152C212.949 65.408 212.928 65.792 212.928 66.304C212.928 69.248 214.464 70.72 217.536 70.72C219.285 70.72 220.693 70.2293 221.76 69.248C222.869 68.2667 223.68 67.0507 224.192 65.6C224.448 64.8747 224.661 64 224.832 62.976C225.045 61.952 225.152 61.12 225.152 60.48C225.152 59.2 224.789 58.1333 224.064 57.28C223.381 56.4267 222.251 56 220.672 56C218.837 56 217.344 56.512 216.192 57.536C215.083 58.56 214.272 59.904 213.76 61.568C213.376 62.6773 213.12 63.872 212.992 65.152ZM257.974 67.008C257.888 67.52 257.846 67.8827 257.846 68.096C257.846 69.4187 258.571 70.08 260.022 70.08H265.142C265.611 70.08 265.974 70.2507 266.23 70.592C266.528 70.9333 266.635 71.3387 266.55 71.808L265.142 78.272C265.056 78.7413 264.8 79.1467 264.374 79.488C263.99 79.8293 263.563 80 263.094 80H257.654C255.648 80 253.75 79.5947 251.958 78.784C250.208 77.9733 248.779 76.8 247.67 75.264C246.603 73.728 246.07 71.936 246.07 69.888C246.07 69.0347 246.155 68.2027 246.326 67.392L248.63 56.64H243.894C243.424 56.64 243.062 56.4693 242.806 56.128C242.55 55.7867 242.464 55.3813 242.549 54.912L243.894 48.448C243.979 47.9787 244.235 47.5733 244.661 47.232C245.088 46.8907 245.536 46.72 246.006 46.72H250.742L252.982 36.288C253.067 35.8187 253.302 35.4133 253.686 35.072C254.112 34.7307 254.56 34.56 255.03 34.56H263.094C263.563 34.56 263.926 34.7307 264.182 35.072C264.48 35.4133 264.587 35.8187 264.502 36.288L262.262 46.72H269.494C269.963 46.72 270.326 46.8907 270.582 47.232C270.838 47.5733 270.923 47.9787 270.838 48.448L269.494 54.912C269.408 55.3813 269.152 55.7867 268.726 56.128C268.299 56.4693 267.851 56.64 267.382 56.64H260.15L257.974 67.008ZM298.404 48.448C298.489 47.9787 298.724 47.5733 299.108 47.232C299.535 46.8907 299.983 46.72 300.452 46.72H308.516C308.985 46.72 309.348 46.8907 309.604 47.232C309.903 47.5733 310.009 47.9787 309.924 48.448L303.652 78.272C303.567 78.7413 303.311 79.1467 302.884 79.488C302.5 79.8293 302.073 80 301.604 80H293.476C293.007 80 292.623 79.8293 292.324 79.488C292.068 79.1467 291.983 78.7413 292.068 78.272L292.388 76.8C291.663 77.9947 290.575 78.9333 289.124 79.616C287.716 80.2987 285.689 80.64 283.044 80.64C281.081 80.64 279.225 80.192 277.476 79.296C275.727 78.4 274.319 77.0773 273.252 75.328C272.185 73.536 271.652 71.3813 271.652 68.864C271.652 67.7547 271.737 66.688 271.908 65.664C272.121 64.256 272.484 62.528 272.996 60.48C274.233 55.6587 276.324 52.0533 279.268 49.664C282.212 47.2747 285.711 46.08 289.764 46.08C291.983 46.08 293.796 46.4853 295.204 47.296C296.655 48.064 297.615 48.9387 298.084 49.92L298.404 48.448ZM283.492 65.152C283.449 65.408 283.428 65.792 283.428 66.304C283.428 69.248 284.964 70.72 288.036 70.72C289.785 70.72 291.193 70.2293 292.26 69.248C293.369 68.2667 294.18 67.0507 294.692 65.6C294.948 64.8747 295.161 64 295.332 62.976C295.545 61.952 295.652 61.12 295.652 60.48C295.652 59.2 295.289 58.1333 294.564 57.28C293.881 56.4267 292.751 56 291.172 56C289.337 56 287.844 56.512 286.692 57.536C285.583 58.56 284.772 59.904 284.26 61.568C283.876 62.6773 283.62 63.872 283.492 65.152Z" fill="#3B892F"/>
    </g>
    <defs>
        <filter id="filter0_ddii" x="0.430481" y="0.560059" width="343.522" height="114.08" filterUnits="userSpaceOnUse" color-interpolation-filters="sRGB">
            <feFlood flood-opacity="0" result="BackgroundImageFix"/>
            <feColorMatrix in="SourceAlpha" type="matrix" values="0 0 0 0 0 0 0 0 0 0 0 0 0 0 0 0 0 0 127 0"/>
            <feOffset dx="10" dy="10"/>
            <feGaussianBlur stdDeviation="12"/>
            <feColorMatrix type="matrix" values="0 0 0 0 0.866667 0 0 0 0 0.886275 0 0 0 0 0.933333 0 0 0 1 0"/>
            <feBlend mode="normal" in2="BackgroundImageFix" result="effect1_dropShadow"/>
            <feColorMatrix in="SourceAlpha" type="matrix" values="0 0 0 0 0 0 0 0 0 0 0 0 0 0 0 0 0 0 127 0"/>
            <feOffset dx="-10" dy="-10"/>
            <feGaussianBlur stdDeviation="12"/>
            <feColorMatrix type="matrix" values="0 0 0 0 1 0 0 0 0 1 0 0 0 0 1 0 0 0 1 0"/>
            <feBlend mode="normal" in2="effect1_dropShadow" result="effect2_dropShadow"/>
            <feBlend mode="normal" in="SourceGraphic" in2="effect2_dropShadow" result="shape"/>
            <feColorMatrix in="SourceAlpha" type="matrix" values="0 0 0 0 0 0 0 0 0 0 0 0 0 0 0 0 0 0 127 0" result="hardAlpha"/>
            <feOffset/>
            <feGaussianBlur stdDeviation="10"/>
            <feComposite in2="hardAlpha" operator="arithmetic" k2="-1" k3="1"/>
            <feColorMatrix type="matrix" values="0 0 0 0 0 0 0 0 0 0 0 0 0 0 0 0 0 0 0.04 0"/>
            <feBlend mode="normal" in2="shape" result="effect3_innerShadow"/>
            <feColorMatrix in="SourceAlpha" type="matrix" values="0 0 0 0 0 0 0 0 0 0 0 0 0 0 0 0 0 0 127 0" result="hardAlpha"/>
            <feOffset dx="-20" dy="-20"/>
            <feGaussianBlur stdDeviation="10"/>
            <feComposite in2="hardAlpha" operator="arithmetic" k2="-1" k3="1"/>
            <feColorMatrix type="matrix" values="0 0 0 0 1 0 0 0 0 1 0 0 0 0 1 0 0 0 0.25 0"/>
            <feBlend mode="normal" in2="effect3_innerShadow" result="effect4_innerShadow"/>
        </filter>
    </defs>
</svg>
